<svg xmlns="http://www.w3.org/2000/svg" viewBox="0 0 66.25 92.07"><defs><style>.cls-1{fill:#8db5e7;}.cls-2{fill:#4f719d;}.cls-3,.cls-4,.cls-5{fill:#fff;}.cls-3{fill-opacity:0.2;}.cls-4{fill-opacity:0.3;}.cls-6{fill:#a3c3eb;fill-opacity:0.5;}</style></defs><title>blue-sad</title><g id="Layer_2" data-name="Layer 2"><g id="Layer_1-2" data-name="Layer 1"><path class="cls-1" d="M14.15,29.6a20.72,20.72,0,0,1,6.3-15.2A20.7,20.7,0,0,1,32.6,8.35v-.2l1-.05,1,.05V8.3a20.61,20.61,0,0,1,12.25,6.1,20.72,20.72,0,0,1,6.3,15.2V70q0,5.44-6.3,9.3A27.47,27.47,0,0,1,34.6,83v.1h-2V83a28.11,28.11,0,0,1-12.15-3.7q-6.3-3.85-6.3-9.3V29.6"/><path class="cls-1" d="M64.35,70.4a2.57,2.57,0,0,1-.8,1.75,2.3,2.3,0,0,1-1.8.7A2.39,2.39,0,0,1,60,72.1q-5.66-5.89-10.45-.8l-6.5-6.5.25-.2q11.66-5.05,20.3,4a2.84,2.84,0,0,1,.75,1.8m-43-5.6-6.5,6.5q-4.8-5.1-10.5.85a2.39,2.39,0,0,1-1.75.75,2.3,2.3,0,0,1-1.8-.7A2.45,2.45,0,0,1,0,70.4a2.59,2.59,0,0,1,.7-1.75q8.65-9,20.3-4l.3.15"/><path class="cls-1" d="M30.15,91.15q-.9-9-10.15-12.1a13.08,13.08,0,0,1,7.6-8.55Q38,79.6,36.3,87a8.87,8.87,0,0,1-2.4,4.55,2.73,2.73,0,0,1-3.75-.35M58.8,87a8.87,8.87,0,0,1-2.4,4.55,2.73,2.73,0,0,1-3.75-.35q-.9-9-10.15-12.1a13.08,13.08,0,0,1,7.6-8.55Q60.45,79.6,58.8,87"/><path class="cls-2" d="M38.9,33.2a2.19,2.19,0,0,1,1.7.8,2.42,2.42,0,0,1,0,3.5,2.24,2.24,0,0,1-1.7.75,2.52,2.52,0,0,1-1.85-.75,2.54,2.54,0,0,1,0-3.5,2.45,2.45,0,0,1,1.85-.8m-5,6.8a2.15,2.15,0,0,1-.8,1.75,2.15,2.15,0,0,1-1.75.8,2.49,2.49,0,0,1-1.8-.8A2.26,2.26,0,0,1,28.8,40a2.46,2.46,0,0,1,.7-1.75,2.55,2.55,0,0,1,1.8-.75,2.2,2.2,0,0,1,1.75.75,2.34,2.34,0,0,1,.8,1.75m-2.1,10.55a1,1,0,0,1-.1-.75,4.75,4.75,0,0,1,1.9-2.55,8,8,0,0,1,5.1-1.65,7.92,7.92,0,0,1,5.05,1.65,6.66,6.66,0,0,1,1.95,2.45v.8l-.6.5a.87.87,0,0,1-.8,0l-.5-.55a4.63,4.63,0,0,0-1.3-1.65,6.7,6.7,0,0,0-7.65,0,3.42,3.42,0,0,0-1.2,1.6l-.45.55-.85.1-.55-.5m12.8-12.3a2.52,2.52,0,0,1,1.85-.75A2.66,2.66,0,0,1,48.9,40a2.15,2.15,0,0,1-.8,1.75,2.3,2.3,0,0,1-1.7.8,2.45,2.45,0,0,1-1.85-.8A2.2,2.2,0,0,1,43.8,40a2.39,2.39,0,0,1,.75-1.75"/><path class="cls-3" d="M14.2,13.1A26.42,26.42,0,0,1,33.65,5,26.74,26.74,0,0,1,53.2,13.1a26.49,26.49,0,0,1,8,19.45,26.72,26.72,0,0,1-8,19.55,26.81,26.81,0,0,1-19.55,8,26.49,26.49,0,0,1-19.45-8A26.58,26.58,0,0,1,6.05,32.55,26.35,26.35,0,0,1,14.2,13.1m21.45,9.1a9,9,0,0,0,2.8,6.65,9.42,9.42,0,0,0,13.3,0A9.07,9.07,0,0,0,54.5,22.2a9.07,9.07,0,0,0-2.75-6.65,9.3,9.3,0,0,0-13.3,0,9,9,0,0,0-2.8,6.65"/><path class="cls-4" d="M35.65,22.2a9,9,0,0,1,2.8-6.65,9.3,9.3,0,0,1,13.3,0A9.07,9.07,0,0,1,54.5,22.2a9.39,9.39,0,0,1-9.4,9.4,9.07,9.07,0,0,1-6.65-2.75,9,9,0,0,1-2.8-6.65"/><path class="cls-5" d="M1.05,32.55a31.16,31.16,0,0,1,9.6-23A31.23,31.23,0,0,1,33.65,0a31.56,31.56,0,0,1,23.1,9.55,31.33,31.33,0,0,1,9.5,23,31.57,31.57,0,0,1-9.5,23.1,31.67,31.67,0,0,1-23.1,9.5,31.33,31.33,0,0,1-23-9.5,31.4,31.4,0,0,1-9.6-23.1M14.2,13.1A26.35,26.35,0,0,0,6.05,32.55,26.58,26.58,0,0,0,14.2,52.1a26.49,26.49,0,0,0,19.45,8,26.81,26.81,0,0,0,19.55-8,26.72,26.72,0,0,0,8-19.55,26.49,26.49,0,0,0-8-19.45A26.74,26.74,0,0,0,33.65,5,26.42,26.42,0,0,0,14.2,13.1"/><path class="cls-6" d="M28.4,78.05a4,4,0,1,1,2.8,1.15,3.8,3.8,0,0,1-2.8-1.15M23.8,75.6a2.05,2.05,0,1,1,.6-1.45,2,2,0,0,1-.6,1.45m-1.4-8.15a2.9,2.9,0,0,1-4.95,2,2.9,2.9,0,1,1,4.1-4.1,2.79,2.79,0,0,1,.85,2"/></g></g></svg>