<svg xmlns="http://www.w3.org/2000/svg" viewBox="0 0 65.2 91.8"><defs><style>.cls-1{fill:#8db5e7;}.cls-2{fill:#4f719d;}.cls-3,.cls-4,.cls-5{fill:#fff;}.cls-3{fill-opacity:0.2;}.cls-4{fill-opacity:0.3;}.cls-6{fill:#a3c3eb;fill-opacity:0.5;}</style></defs><title>blue</title><g id="Layer_2" data-name="Layer 2"><g id="Layer_1-2" data-name="Layer 1"><path class="cls-1" d="M49.1,73.5V91.8H40.75L37.2,73.5a6.14,6.14,0,0,1,.95-4.7,5.11,5.11,0,0,1,4.35-2.1,6,6,0,0,1,4.75,2.1,6.41,6.41,0,0,1,1.85,4.7m-22-4.7A6.14,6.14,0,0,1,28,73.5L24.45,91.8H16.1V73.5A6.41,6.41,0,0,1,18,68.8a6,6,0,0,1,4.75-2.1,5.11,5.11,0,0,1,4.35,2.1"/><path class="cls-1" d="M31.6,8.3V8.15l1-.05,1,.05V8.3a20.56,20.56,0,0,1,12.2,6.1,20.72,20.72,0,0,1,6.3,15.2V70q0,5.44-6.3,9.3A27.37,27.37,0,0,1,33.6,83v.1h-2V83a27.65,27.65,0,0,1-12.2-3.7q-6.3-3.85-6.3-9.3V29.6a20.72,20.72,0,0,1,6.3-15.2A20.42,20.42,0,0,1,31.6,8.3"/><path class="cls-1" d="M50.2,62.7l.3.1Q62.35,67.45,62.05,80a2.48,2.48,0,0,1-2.55,2.45,2.3,2.3,0,0,1-1.75-.75,2.53,2.53,0,0,1-.7-1.8q.15-8.2-6.85-8V62.7M15,62.7v9.2q-7-.2-6.85,8a2.53,2.53,0,0,1-.7,1.8,2.3,2.3,0,0,1-1.75.75A2.48,2.48,0,0,1,3.15,80Q2.85,67.44,14.7,62.8l.3-.1"/><path class="cls-2" d="M35.3,38.25A2.3,2.3,0,0,1,34.55,40a2.24,2.24,0,0,1-1.7.75A2.52,2.52,0,0,1,31,40a2.54,2.54,0,0,1,0-3.5,2.45,2.45,0,0,1,1.85-.8,2.19,2.19,0,0,1,1.7.8,2.3,2.3,0,0,1,.75,1.75M40.35,40a2.66,2.66,0,0,1,2.5,2.5,2.15,2.15,0,0,1-.8,1.75,2.3,2.3,0,0,1-1.7.8,2.45,2.45,0,0,1-1.85-.8,2.2,2.2,0,0,1-.75-1.75,2.39,2.39,0,0,1,.75-1.75A2.52,2.52,0,0,1,40.35,40m-15.1,0a2.2,2.2,0,0,1,1.75.75,2.34,2.34,0,0,1,.8,1.75,2.15,2.15,0,0,1-.8,1.75,2.15,2.15,0,0,1-1.75.8,2.49,2.49,0,0,1-1.8-.8,2.26,2.26,0,0,1-.7-1.75,2.46,2.46,0,0,1,.7-1.75,2.55,2.55,0,0,1,1.8-.75m3.3,12.25.25-.75a1.19,1.19,0,0,1,.8-.3h6.25a1,1,0,0,1,.75.3l.35.75L36.6,53a1,1,0,0,1-.75.35H29.6a1.11,1.11,0,0,1-.8-.35l-.25-.75"/><path class="cls-3" d="M13.15,13.1A26.42,26.42,0,0,1,32.6,5a26.74,26.74,0,0,1,19.55,8.1A26.49,26.49,0,0,1,60.2,32.55,26.72,26.72,0,0,1,52.15,52.1a26.81,26.81,0,0,1-19.55,8,26.49,26.49,0,0,1-19.45-8A26.58,26.58,0,0,1,5,32.55,26.35,26.35,0,0,1,13.15,13.1M34.6,22.2a9,9,0,0,0,2.8,6.65,9.42,9.42,0,0,0,13.3,0,9.07,9.07,0,0,0,2.75-6.65,9.07,9.07,0,0,0-2.75-6.65,9.3,9.3,0,0,0-13.3,0,9,9,0,0,0-2.8,6.65"/><path class="cls-4" d="M34.6,22.2a9,9,0,0,1,2.8-6.65,9.3,9.3,0,0,1,13.3,0,9.07,9.07,0,0,1,2.75,6.65,9.39,9.39,0,0,1-9.4,9.4,9.07,9.07,0,0,1-6.65-2.75,9,9,0,0,1-2.8-6.65"/><path class="cls-5" d="M13.15,13.1A26.35,26.35,0,0,0,5,32.55,26.58,26.58,0,0,0,13.15,52.1a26.49,26.49,0,0,0,19.45,8,26.81,26.81,0,0,0,19.55-8A26.72,26.72,0,0,0,60.2,32.55,26.49,26.49,0,0,0,52.15,13.1,26.74,26.74,0,0,0,32.6,5a26.42,26.42,0,0,0-19.45,8.1M9.6,9.55A31.23,31.23,0,0,1,32.6,0,31.56,31.56,0,0,1,55.7,9.55a31.33,31.33,0,0,1,9.5,23,31.57,31.57,0,0,1-9.5,23.1,31.67,31.67,0,0,1-23.1,9.5,31.33,31.33,0,0,1-23-9.5A31.4,31.4,0,0,1,0,32.55a31.16,31.16,0,0,1,9.6-23"/><path class="cls-6" d="M16.4,65.4a2.9,2.9,0,1,1-.85,2,2.79,2.79,0,0,1,.85-2m11,12.65a4,4,0,1,1,2.8,1.15,3.8,3.8,0,0,1-2.8-1.15m-4.6-2.45a2.05,2.05,0,1,1,.6-1.45,2,2,0,0,1-.6,1.45"/></g></g></svg>