<svg xmlns="http://www.w3.org/2000/svg" viewBox="0 0 65.2 93.31"><defs><style>.cls-1{fill:#8db5e7;}.cls-2{fill:#4f719d;}.cls-3,.cls-4,.cls-5{fill:#fff;}.cls-3{fill-opacity:0.2;}.cls-4{fill-opacity:0.3;}.cls-6{fill:#a3c3eb;fill-opacity:0.5;}</style></defs><title>blue-surp</title><g id="Layer_2" data-name="Layer 2"><g id="Layer_1-2" data-name="Layer 1"><path class="cls-1" d="M20.2,92.05a8.76,8.76,0,0,1-4.85,1.25q-2.65-.8-2.1-3.35Q19.1,83.4,15.3,74.6a13,13,0,0,1,11.45,0q.11,13.8-6.55,17.45M48,68q10.35,9.1,8.7,16.45A8.87,8.87,0,0,1,54.3,89a2.73,2.73,0,0,1-3.75-.35q-.9-9-10.15-12.1A13.08,13.08,0,0,1,48,68"/><path class="cls-1" d="M19.4,14.4A20.42,20.42,0,0,1,32.55,8.2V8.1h.05l1,.05.95-.05v.35a20.53,20.53,0,0,1,11.25,6,20.72,20.72,0,0,1,6.3,15.2V70q0,5.44-6.3,9.3A27,27,0,0,1,34.55,83v.15h-2v0A28.19,28.19,0,0,1,19.4,79.3q-6.3-3.85-6.3-9.3V29.6a20.72,20.72,0,0,1,6.3-15.2"/><path class="cls-1" d="M60.45,62.35A2.65,2.65,0,0,1,62,61.1a2.52,2.52,0,0,1,1.9.25,2.68,2.68,0,0,1,1.2,1.5,2.56,2.56,0,0,1-.25,1.9q-6,11-18.6,9.1l-.3,0,4.6-8q6,3.7,10-3.45M5.7,82.45A2.48,2.48,0,0,1,3.15,80Q2.85,67.44,14.7,62.8l.3-.1v9.2q-7-.2-6.85,8a2.53,2.53,0,0,1-.7,1.8,2.3,2.3,0,0,1-1.75.75"/><path class="cls-2" d="M40.3,38.25A2.3,2.3,0,0,1,39.55,40a2.24,2.24,0,0,1-1.7.75A2.52,2.52,0,0,1,36,40a2.54,2.54,0,0,1,0-3.5,2.45,2.45,0,0,1,1.85-.8,2.19,2.19,0,0,1,1.7.8,2.3,2.3,0,0,1,.75,1.75M32,40.75a2.34,2.34,0,0,1,.8,1.75,2.15,2.15,0,0,1-.8,1.75,2.15,2.15,0,0,1-1.75.8,2.49,2.49,0,0,1-1.8-.8,2.26,2.26,0,0,1-.7-1.75,2.46,2.46,0,0,1,.7-1.75,2.55,2.55,0,0,1,1.8-.75,2.2,2.2,0,0,1,1.75.75m5.6,8.35a2.37,2.37,0,0,1,1.75.7,2.45,2.45,0,0,1,.75,1.8,2.56,2.56,0,0,1-2.5,2.5,2.45,2.45,0,0,1-1.8-.75,2.37,2.37,0,0,1-.7-1.75,2.4,2.4,0,0,1,2.5-2.5m9.45-8.35a2.34,2.34,0,0,1,.8,1.75,2.15,2.15,0,0,1-.8,1.75,2.3,2.3,0,0,1-1.7.8,2.45,2.45,0,0,1-1.85-.8,2.2,2.2,0,0,1-.75-1.75,2.39,2.39,0,0,1,.75-1.75A2.52,2.52,0,0,1,45.35,40a2.35,2.35,0,0,1,1.7.75"/><path class="cls-3" d="M13.15,13.1A26.42,26.42,0,0,1,32.6,5a26.74,26.74,0,0,1,19.55,8.1A26.49,26.49,0,0,1,60.2,32.55,26.72,26.72,0,0,1,52.15,52.1a26.81,26.81,0,0,1-19.55,8,26.49,26.49,0,0,1-19.45-8A26.58,26.58,0,0,1,5,32.55,26.35,26.35,0,0,1,13.15,13.1M37.4,15.55a9,9,0,0,0-2.8,6.65,9,9,0,0,0,2.8,6.65,9.42,9.42,0,0,0,13.3,0,9.07,9.07,0,0,0,2.75-6.65,9.07,9.07,0,0,0-2.75-6.65,9.3,9.3,0,0,0-13.3,0"/><path class="cls-4" d="M37.4,15.55a9.3,9.3,0,0,1,13.3,0,9.07,9.07,0,0,1,2.75,6.65,9.39,9.39,0,0,1-9.4,9.4,9.07,9.07,0,0,1-6.65-2.75,9,9,0,0,1-2.8-6.65,9,9,0,0,1,2.8-6.65"/><path class="cls-5" d="M13.15,13.1A26.35,26.35,0,0,0,5,32.55,26.58,26.58,0,0,0,13.15,52.1a26.49,26.49,0,0,0,19.45,8,26.81,26.81,0,0,0,19.55-8A26.72,26.72,0,0,0,60.2,32.55,26.49,26.49,0,0,0,52.15,13.1,26.74,26.74,0,0,0,32.6,5a26.42,26.42,0,0,0-19.45,8.1M9.6,9.55A31.23,31.23,0,0,1,32.6,0,31.56,31.56,0,0,1,55.7,9.55a31.33,31.33,0,0,1,9.5,23,31.57,31.57,0,0,1-9.5,23.1,31.67,31.67,0,0,1-23.1,9.5,31.33,31.33,0,0,1-23-9.5A31.4,31.4,0,0,1,0,32.55a31.16,31.16,0,0,1,9.6-23"/><path class="cls-6" d="M18.45,64.55a2.9,2.9,0,1,1-2.05.85,2.79,2.79,0,0,1,2.05-.85m4.9,9.6a2,2,0,1,1-.6-1.45,2,2,0,0,1,.6,1.45m6.8-2.85a3.93,3.93,0,1,1-2.8,1.15,3.8,3.8,0,0,1,2.8-1.15"/></g></g></svg>