<svg xmlns="http://www.w3.org/2000/svg" viewBox="0 0 65.2 91.8"><defs><style>.cls-1{fill:#8db5e7;}.cls-2{fill:#4f719d;}.cls-3,.cls-4,.cls-5{fill:#fff;}.cls-4{fill-opacity:0.2;}.cls-5{fill-opacity:0.3;}.cls-6{fill:#a3c3eb;fill-opacity:0.5;}</style></defs><title>blue-stand</title><g id="Layer_2" data-name="Layer 2"><g id="Layer_1-2" data-name="Layer 1"><path class="cls-1" d="M26.65,68.8a5.86,5.86,0,0,1,.05,4.7l-7,18.3H11.3l3.5-18.3a7.85,7.85,0,0,1,2.75-4.7,7.19,7.19,0,0,1,5.15-2.1,4.22,4.22,0,0,1,3.95,2.1m11.3,0a5.64,5.64,0,0,1,4.55-2.1,5.47,5.47,0,0,1,4.55,2.1,5.77,5.77,0,0,1,1.5,4.7L47.2,91.8H38.85l-2.2-18.3A6.75,6.75,0,0,1,38,68.8"/><path class="cls-1" d="M52.1,29.6V70q0,5.44-6.3,9.3A27.71,27.71,0,0,1,33.55,83v.1h-2l-1,0V82.9A27.12,27.12,0,0,1,19.4,79.3q-6.3-3.85-6.3-9.3V29.6a20.72,20.72,0,0,1,6.3-15.2,20.74,20.74,0,0,1,11.15-6V8.2l1,0L32.6,8.1l.95.05V8.3A20.44,20.44,0,0,1,45.8,14.4a20.72,20.72,0,0,1,6.3,15.2"/><path class="cls-1" d="M7.45,81.7a2.3,2.3,0,0,1-1.75.75A2.48,2.48,0,0,1,3.15,80Q2.85,67.44,14.7,62.8l.3-.1v9.2q-7-.2-6.85,8a2.53,2.53,0,0,1-.7,1.8m39.75-19,.3.1Q59.35,67.45,59.05,80a2.48,2.48,0,0,1-2.55,2.45,2.3,2.3,0,0,1-1.75-.75,2.53,2.53,0,0,1-.7-1.8q.15-8.2-6.85-8V62.7"/><path class="cls-2" d="M43.5,44.25a2.2,2.2,0,0,1-.75-1.75,2.39,2.39,0,0,1,.75-1.75A2.52,2.52,0,0,1,45.35,40a2.66,2.66,0,0,1,2.5,2.5,2.15,2.15,0,0,1-.8,1.75,2.3,2.3,0,0,1-1.7.8,2.45,2.45,0,0,1-1.85-.8m-8.2-6A2.37,2.37,0,0,1,36,36.5a2.45,2.45,0,0,1,1.85-.8,2.19,2.19,0,0,1,1.7.8,2.42,2.42,0,0,1,0,3.5,2.24,2.24,0,0,1-1.7.75A2.52,2.52,0,0,1,36,40a2.37,2.37,0,0,1-.7-1.75m-5,1.75a2.2,2.2,0,0,1,1.75.75,2.34,2.34,0,0,1,.8,1.75,2.15,2.15,0,0,1-.8,1.75,2.15,2.15,0,0,1-1.75.8,2.49,2.49,0,0,1-1.8-.8,2.26,2.26,0,0,1-.7-1.75,2.46,2.46,0,0,1,.7-1.75,2.55,2.55,0,0,1,1.8-.75M33.8,51.5a1.19,1.19,0,0,1,.8-.3h6.25a1,1,0,0,1,.75.3l.35.75L41.6,53a1,1,0,0,1-.75.35H34.6a1,1,0,0,1-1.05-1.1,1.23,1.23,0,0,1,.25-.75"/><path class="cls-3" d="M60.2,32.55A26.49,26.49,0,0,0,52.15,13.1,26.74,26.74,0,0,0,32.6,5a26.42,26.42,0,0,0-19.45,8.1A26.35,26.35,0,0,0,5,32.55,26.58,26.58,0,0,0,13.15,52.1a26.49,26.49,0,0,0,19.45,8,26.81,26.81,0,0,0,19.55-8A26.72,26.72,0,0,0,60.2,32.55m-4.5-23a31.33,31.33,0,0,1,9.5,23,31.57,31.57,0,0,1-9.5,23.1,31.67,31.67,0,0,1-23.1,9.5,31.33,31.33,0,0,1-23-9.5A31.4,31.4,0,0,1,0,32.55a31.16,31.16,0,0,1,9.6-23A31.23,31.23,0,0,1,32.6,0,31.56,31.56,0,0,1,55.7,9.55"/><path class="cls-4" d="M60.2,32.55A26.72,26.72,0,0,1,52.15,52.1a26.81,26.81,0,0,1-19.55,8,26.49,26.49,0,0,1-19.45-8A26.58,26.58,0,0,1,5,32.55,26.35,26.35,0,0,1,13.15,13.1,26.42,26.42,0,0,1,32.6,5a26.74,26.74,0,0,1,19.55,8.1A26.49,26.49,0,0,1,60.2,32.55M53.45,22.2a9.07,9.07,0,0,0-2.75-6.65,9.3,9.3,0,0,0-13.3,0,9,9,0,0,0-2.8,6.65,9,9,0,0,0,2.8,6.65,9.42,9.42,0,0,0,13.3,0,9.07,9.07,0,0,0,2.75-6.65"/><path class="cls-5" d="M53.45,22.2a9.39,9.39,0,0,1-9.4,9.4,9.07,9.07,0,0,1-6.65-2.75,9,9,0,0,1-2.8-6.65,9,9,0,0,1,2.8-6.65,9.3,9.3,0,0,1,13.3,0,9.07,9.07,0,0,1,2.75,6.65"/><path class="cls-6" d="M18.45,64.55a2.9,2.9,0,1,1-2.05.85,2.79,2.79,0,0,1,2.05-.85m4.9,9.6a2,2,0,1,1-.6-1.45,2,2,0,0,1,.6,1.45m6.8-2.85a3.93,3.93,0,1,1-2.8,1.15,3.8,3.8,0,0,1,2.8-1.15"/></g></g></svg>