<svg xmlns="http://www.w3.org/2000/svg" viewBox="0 0 67.13 93.31"><defs><style>.cls-1{fill:#f19cb7;}.cls-2{fill:#a55b72;}.cls-3,.cls-4,.cls-5{fill:#fff;}.cls-4{fill-opacity:0.2;}.cls-5{fill-opacity:0.3;}.cls-6{fill:#f3afc5;fill-opacity:0.5;}</style></defs><title>pink-surp</title><g id="Layer_2" data-name="Layer 2"><g id="Layer_1-2" data-name="Layer 1"><path class="cls-1" d="M56.3,89a2.73,2.73,0,0,1-3.75-.35q-.9-9-10.15-12.1A13.08,13.08,0,0,1,50,68q10.35,9.1,8.7,16.45A8.87,8.87,0,0,1,56.3,89m-43-14.4a13,13,0,0,1,11.45,0q.11,13.8-6.55,17.45a8.76,8.76,0,0,1-4.85,1.25q-2.65-.8-2.1-3.35Q17.1,83.4,13.3,74.6"/><path class="cls-1" d="M47.8,24.4a20.72,20.72,0,0,1,6.3,15.2V70q0,5.44-6.3,9.3a28.94,28.94,0,0,1-15.2,3.8,28.94,28.94,0,0,1-15.2-3.8q-6.3-3.85-6.3-9.3V39.6a20.72,20.72,0,0,1,6.3-15.2,20.72,20.72,0,0,1,15.2-6.3,20.72,20.72,0,0,1,15.2,6.3"/><path class="cls-2" d="M37.6,54.1a2.45,2.45,0,0,1-1.8-.75,2.37,2.37,0,0,1-.7-1.75,2.4,2.4,0,0,1,2.5-2.5,2.37,2.37,0,0,1,1.75.7,2.45,2.45,0,0,1,.75,1.8,2.56,2.56,0,0,1-2.5,2.5"/><path class="cls-3" d="M45.45,37.55a7.32,7.32,0,0,1-2.25,4A7.13,7.13,0,0,1,38,43.8a7.63,7.63,0,0,1-5.6-2.3,6.74,6.74,0,0,1-2-4l-.15-1.3a7.84,7.84,0,0,1,2.15-5.45A7.7,7.7,0,0,1,38,28.55,7.2,7.2,0,0,1,43.2,30.8a7.47,7.47,0,0,1,2.35,5.45l-.1,1.3m-4.05,2.1A4.53,4.53,0,0,0,43,36.15a4.94,4.94,0,0,0-1.55-3.6,4.8,4.8,0,0,0-3.5-1.5,5.18,5.18,0,0,0-3.75,1.5,5.08,5.08,0,0,0-1.45,3.6,4.65,4.65,0,0,0,1.45,3.5A5.11,5.11,0,0,0,37.9,41.2a4.74,4.74,0,0,0,3.5-1.55"/><path class="cls-2" d="M41.4,39.65a4.74,4.74,0,0,1-3.5,1.55,5.11,5.11,0,0,1-3.75-1.55,4.65,4.65,0,0,1-1.45-3.5,5.08,5.08,0,0,1,1.45-3.6,5.18,5.18,0,0,1,3.75-1.5,4.8,4.8,0,0,1,3.5,1.5A4.94,4.94,0,0,1,43,36.15a4.53,4.53,0,0,1-1.55,3.5"/><path class="cls-1" d="M6.15,69.9a2.53,2.53,0,0,1-.7,1.8,2.3,2.3,0,0,1-1.75.75A2.48,2.48,0,0,1,1.15,70Q.85,57.45,12.7,52.8l.3-.1v9.2q-7-.19-6.85,8M66.8,54.75q-6,11-18.6,9.1l-.3-.05,4.6-8q6,3.71,10-3.45A2.65,2.65,0,0,1,64,51.1a2.52,2.52,0,0,1,1.9.25,2.68,2.68,0,0,1,1.2,1.5,2.56,2.56,0,0,1-.25,1.9"/><path class="cls-3" d="M60.2,32.55A26.49,26.49,0,0,0,52.15,13.1,26.74,26.74,0,0,0,32.6,5a26.42,26.42,0,0,0-19.45,8.1A26.35,26.35,0,0,0,5,32.55,26.58,26.58,0,0,0,13.15,52.1a26.49,26.49,0,0,0,19.45,8,26.81,26.81,0,0,0,19.55-8A26.72,26.72,0,0,0,60.2,32.55m-4.5-23a31.33,31.33,0,0,1,9.5,23,31.57,31.57,0,0,1-9.5,23.1,31.67,31.67,0,0,1-23.1,9.5,31.33,31.33,0,0,1-23-9.5A31.4,31.4,0,0,1,0,32.55a31.16,31.16,0,0,1,9.6-23A31.23,31.23,0,0,1,32.6,0,31.56,31.56,0,0,1,55.7,9.55"/><path class="cls-4" d="M60.2,32.55A26.72,26.72,0,0,1,52.15,52.1a26.81,26.81,0,0,1-19.55,8,26.49,26.49,0,0,1-19.45-8A26.58,26.58,0,0,1,5,32.55,26.35,26.35,0,0,1,13.15,13.1,26.42,26.42,0,0,1,32.6,5a26.74,26.74,0,0,1,19.55,8.1A26.49,26.49,0,0,1,60.2,32.55M53.45,22.2a9.07,9.07,0,0,0-2.75-6.65,9.3,9.3,0,0,0-13.3,0,9,9,0,0,0-2.8,6.65,9,9,0,0,0,2.8,6.65,9.42,9.42,0,0,0,13.3,0,9.07,9.07,0,0,0,2.75-6.65"/><path class="cls-5" d="M53.45,22.2a9.39,9.39,0,0,1-9.4,9.4,9.07,9.07,0,0,1-6.65-2.75,9,9,0,0,1-2.8-6.65,9,9,0,0,1,2.8-6.65,9.3,9.3,0,0,1,13.3,0,9.07,9.07,0,0,1,2.75,6.65"/><path class="cls-6" d="M31.1,75.85l1.6-.2a1.81,1.81,0,0,1,1.2.95,2,2,0,0,1-.75,2.8l-1.55.2a2,2,0,0,1-1.25-.95,2.11,2.11,0,0,1-.2-1.55,2.24,2.24,0,0,1,1-1.25m-6.25-5.1a2.94,2.94,0,0,1,2.25-.3,2.74,2.74,0,0,1,1.7,1.35,3,3,0,0,1,.35,2.2,2.91,2.91,0,0,1-1.4,1.75l-2.15.3a2.76,2.76,0,0,1-1.8-1.35,2.7,2.7,0,0,1-.25-2.2,2.57,2.57,0,0,1,1.3-1.75m12,5.35a3.86,3.86,0,0,1,1.5-5.35,3.54,3.54,0,0,1,3-.4,3.68,3.68,0,0,1,2.4,1.8,3.77,3.77,0,0,1,.4,3,3.88,3.88,0,0,1-1.8,2.4,4.06,4.06,0,0,1-3.05.4,4,4,0,0,1-2.4-1.9"/></g></g></svg>