<svg xmlns="http://www.w3.org/2000/svg" viewBox="0 0 65.2 91.8"><defs><style>.cls-1{fill:#f19cb7;}.cls-2,.cls-4,.cls-5{fill:#fff;}.cls-3{fill:#a55b72;}.cls-4{fill-opacity:0.2;}.cls-5{fill-opacity:0.3;}.cls-6{fill:#f3afc5;fill-opacity:0.5;}</style></defs><title>pink</title><g id="Layer_2" data-name="Layer 2"><g id="Layer_1-2" data-name="Layer 1"><path class="cls-1" d="M16,68.8a6,6,0,0,1,4.75-2.1,5.11,5.11,0,0,1,4.35,2.1A6.14,6.14,0,0,1,26,73.5L22.45,91.8H14.1V73.5A6.41,6.41,0,0,1,16,68.8m24.2,0a5.11,5.11,0,0,1,4.35-2.1,6,6,0,0,1,4.75,2.1,6.41,6.41,0,0,1,1.85,4.7V91.8H42.75L39.2,73.5a6.14,6.14,0,0,1,.95-4.7"/><path class="cls-1" d="M17.4,24.4a20.72,20.72,0,0,1,15.2-6.3,20.72,20.72,0,0,1,15.2,6.3,20.72,20.72,0,0,1,6.3,15.2V70q0,5.44-6.3,9.3a28.94,28.94,0,0,1-15.2,3.8,28.94,28.94,0,0,1-15.2-3.8q-6.3-3.85-6.3-9.3V39.6a20.72,20.72,0,0,1,6.3-15.2"/><path class="cls-1" d="M5.45,71.7a2.3,2.3,0,0,1-1.75.75A2.48,2.48,0,0,1,1.15,70Q.85,57.45,12.7,52.8l.3-.1v9.2q-7-.19-6.85,8a2.53,2.53,0,0,1-.7,1.8m57.85,0a2.53,2.53,0,0,1-1.8.7,2.3,2.3,0,0,1-1.75-.75,2.53,2.53,0,0,1-.7-1.8q.15-8.2-6.85-8V52.7l.3.1Q64.35,57.45,64.05,70a2.53,2.53,0,0,1-.75,1.75"/><path class="cls-2" d="M29.15,32.4A5.08,5.08,0,0,0,27.7,36a4.65,4.65,0,0,0,1.45,3.5,5.11,5.11,0,0,0,3.75,1.55,4.74,4.74,0,0,0,3.5-1.55A4.53,4.53,0,0,0,38,36a4.94,4.94,0,0,0-1.55-3.6,4.8,4.8,0,0,0-3.5-1.5,5.18,5.18,0,0,0-3.75,1.5m-1.8-1.75A7.7,7.7,0,0,1,33,28.4a7.2,7.2,0,0,1,5.25,2.25,7.47,7.47,0,0,1,2.35,5.45l-.1,1.3a7.32,7.32,0,0,1-2.25,4A7.13,7.13,0,0,1,33,43.65a7.63,7.63,0,0,1-5.6-2.3,6.74,6.74,0,0,1-2-4l-.15-1.3a7.84,7.84,0,0,1,2.15-5.45"/><path class="cls-3" d="M29.15,32.4a5.18,5.18,0,0,1,3.75-1.5,4.8,4.8,0,0,1,3.5,1.5A4.94,4.94,0,0,1,38,36a4.53,4.53,0,0,1-1.55,3.5,4.74,4.74,0,0,1-3.5,1.55,5.11,5.11,0,0,1-3.75-1.55A4.65,4.65,0,0,1,27.7,36a5.08,5.08,0,0,1,1.45-3.6M40,49.1A1,1,0,0,1,40,50a6.43,6.43,0,0,1-2,2.5,8,8,0,0,1-5.2,1.75,7.83,7.83,0,0,1-5.2-1.75,4.36,4.36,0,0,1-1.95-2.6.73.73,0,0,1,.1-.75.64.64,0,0,1,.55-.5l.9,0,.45.55.75,1.25.45.45a6.87,6.87,0,0,0,7.9,0l.6-.5.7-1.25a.88.88,0,0,1,.55-.55.77.77,0,0,1,.75,0h.05a1.09,1.09,0,0,1,.6.5"/><path class="cls-2" d="M60.2,32.55A26.49,26.49,0,0,0,52.15,13.1,26.74,26.74,0,0,0,32.6,5a26.42,26.42,0,0,0-19.45,8.1A26.35,26.35,0,0,0,5,32.55,26.58,26.58,0,0,0,13.15,52.1a26.49,26.49,0,0,0,19.45,8,26.81,26.81,0,0,0,19.55-8A26.72,26.72,0,0,0,60.2,32.55m-4.5-23a31.33,31.33,0,0,1,9.5,23,31.57,31.57,0,0,1-9.5,23.1,31.67,31.67,0,0,1-23.1,9.5,31.33,31.33,0,0,1-23-9.5A31.4,31.4,0,0,1,0,32.55a31.16,31.16,0,0,1,9.6-23A31.23,31.23,0,0,1,32.6,0,31.56,31.56,0,0,1,55.7,9.55"/><path class="cls-4" d="M60.2,32.55A26.72,26.72,0,0,1,52.15,52.1a26.81,26.81,0,0,1-19.55,8,26.49,26.49,0,0,1-19.45-8A26.58,26.58,0,0,1,5,32.55,26.35,26.35,0,0,1,13.15,13.1,26.42,26.42,0,0,1,32.6,5a26.74,26.74,0,0,1,19.55,8.1A26.49,26.49,0,0,1,60.2,32.55M53.45,22.2a9.07,9.07,0,0,0-2.75-6.65,9.3,9.3,0,0,0-13.3,0,9,9,0,0,0-2.8,6.65,9,9,0,0,0,2.8,6.65,9.42,9.42,0,0,0,13.3,0,9.07,9.07,0,0,0,2.75-6.65"/><path class="cls-5" d="M53.45,22.2a9.39,9.39,0,0,1-9.4,9.4,9.07,9.07,0,0,1-6.65-2.75,9,9,0,0,1-2.8-6.65,9,9,0,0,1,2.8-6.65,9.3,9.3,0,0,1,13.3,0,9.07,9.07,0,0,1,2.75,6.65"/><path class="cls-6" d="M27.1,70.45a2.74,2.74,0,0,1,1.7,1.35,3,3,0,0,1,.35,2.2,2.91,2.91,0,0,1-1.4,1.75,2.9,2.9,0,0,1-3.95-1,2.7,2.7,0,0,1-.25-2.2,2.57,2.57,0,0,1,1.3-1.75,2.94,2.94,0,0,1,2.25-.3m9.4,2.7a3.79,3.79,0,0,1,1.9-2.4,3.54,3.54,0,0,1,3-.4,3.68,3.68,0,0,1,2.4,1.8,3.77,3.77,0,0,1,.4,3,3.88,3.88,0,0,1-1.8,2.4,4.06,4.06,0,0,1-3.05.4,4,4,0,0,1-2.4-1.9,3.82,3.82,0,0,1-.4-2.95m-5.4,2.7,1.6-.2a1.81,1.81,0,0,1,1.2.95,2,2,0,0,1-.75,2.8l-1.55.2a2,2,0,0,1-1.25-.95,2.11,2.11,0,0,1-.2-1.55,2.24,2.24,0,0,1,1-1.25"/></g></g></svg>