<svg xmlns="http://www.w3.org/2000/svg" viewBox="0 0 68.35 92.07"><defs><style>.cls-1{fill:#f19cb7;}.cls-2,.cls-4,.cls-5{fill:#fff;}.cls-3{fill:#a55b72;}.cls-4{fill-opacity:0.2;}.cls-5{fill-opacity:0.3;}.cls-6{fill:#f3afc5;fill-opacity:0.5;}</style></defs><title>pink-sad</title><g id="Layer_2" data-name="Layer 2"><g id="Layer_1-2" data-name="Layer 1"><path class="cls-1" d="M20.45,24.4a20.72,20.72,0,0,1,15.2-6.3,20.72,20.72,0,0,1,15.2,6.3,20.72,20.72,0,0,1,6.3,15.2V70q0,5.44-6.3,9.3a28.94,28.94,0,0,1-15.2,3.8,28.94,28.94,0,0,1-15.2-3.8q-6.3-3.85-6.3-9.3V39.6a20.72,20.72,0,0,1,6.3-15.2"/><path class="cls-1" d="M2.55,62.9a2.3,2.3,0,0,1-1.8-.7A2.45,2.45,0,0,1,0,60.4a2.59,2.59,0,0,1,.7-1.75q8.65-9,20.3-4l.3.15-6.5,6.5q-4.8-5.1-10.5.85a2.39,2.39,0,0,1-1.75.75m63.2,0A2.39,2.39,0,0,1,64,62.1q-5.66-5.9-10.45-.8l-6.5-6.5.25-.2q11.66-5.06,20.3,4a2.84,2.84,0,0,1,.75,1.8,2.57,2.57,0,0,1-.8,1.75,2.3,2.3,0,0,1-1.8.7"/><path class="cls-1" d="M54.1,70.5Q64.45,79.6,62.8,87a8.87,8.87,0,0,1-2.4,4.55,2.73,2.73,0,0,1-3.75-.35q-.9-9-10.15-12.1a13.08,13.08,0,0,1,7.6-8.55M20,79.05a13.08,13.08,0,0,1,7.6-8.55Q38,79.6,36.3,87a8.87,8.87,0,0,1-2.4,4.55,2.73,2.73,0,0,1-3.75-.35q-.9-9-10.15-12.1"/><path class="cls-2" d="M45.75,36a4.94,4.94,0,0,0-1.55-3.6,4.8,4.8,0,0,0-3.5-1.5A5.18,5.18,0,0,0,37,32.4,5.08,5.08,0,0,0,35.5,36,4.65,4.65,0,0,0,37,39.5a5.11,5.11,0,0,0,3.75,1.55,4.74,4.74,0,0,0,3.5-1.55A4.53,4.53,0,0,0,45.75,36m2.5,1.4a7.32,7.32,0,0,1-2.25,4,7.13,7.13,0,0,1-5.25,2.3,7.63,7.63,0,0,1-5.6-2.3,6.74,6.74,0,0,1-2-4L33,36.1a7.84,7.84,0,0,1,2.15-5.45,7.7,7.7,0,0,1,5.6-2.25A7.2,7.2,0,0,1,46,30.65a7.47,7.47,0,0,1,2.35,5.45l-.1,1.3"/><path class="cls-3" d="M45.75,36a4.53,4.53,0,0,1-1.55,3.5,4.74,4.74,0,0,1-3.5,1.55A5.11,5.11,0,0,1,37,39.5,4.65,4.65,0,0,1,35.5,36,5.08,5.08,0,0,1,37,32.4a5.18,5.18,0,0,1,3.75-1.5,4.8,4.8,0,0,1,3.5,1.5A4.94,4.94,0,0,1,45.75,36m-9.6,13.75L35.4,51l-.45.55-.9.05a.64.64,0,0,1-.55-.5.73.73,0,0,1-.1-.75,4.36,4.36,0,0,1,2-2.6A7.83,7.83,0,0,1,40.55,46a8,8,0,0,1,5.2,1.75,6.43,6.43,0,0,1,2,2.5,1,1,0,0,1,0,.85l-.6.5h0a.77.77,0,0,1-.75,0l-.55-.55-.7-1.25-.6-.5a6.87,6.87,0,0,0-7.9,0l-.45.45"/><path class="cls-2" d="M63.25,32.55a26.49,26.49,0,0,0-8-19.45A26.74,26.74,0,0,0,35.65,5,26.42,26.42,0,0,0,16.2,13.1,26.35,26.35,0,0,0,8.05,32.55,26.58,26.58,0,0,0,16.2,52.1a26.49,26.49,0,0,0,19.45,8,26.81,26.81,0,0,0,19.55-8,26.72,26.72,0,0,0,8-19.55m-4.5-23a31.33,31.33,0,0,1,9.5,23,31.57,31.57,0,0,1-9.5,23.1,31.67,31.67,0,0,1-23.1,9.5,31.33,31.33,0,0,1-23-9.5,31.4,31.4,0,0,1-9.6-23.1,31.16,31.16,0,0,1,9.6-23A31.23,31.23,0,0,1,35.65,0a31.56,31.56,0,0,1,23.1,9.55"/><path class="cls-4" d="M63.25,32.55a26.72,26.72,0,0,1-8,19.55,26.81,26.81,0,0,1-19.55,8,26.49,26.49,0,0,1-19.45-8A26.58,26.58,0,0,1,8.05,32.55,26.35,26.35,0,0,1,16.2,13.1,26.42,26.42,0,0,1,35.65,5,26.74,26.74,0,0,1,55.2,13.1a26.49,26.49,0,0,1,8,19.45M56.5,22.2a9.07,9.07,0,0,0-2.75-6.65,9.3,9.3,0,0,0-13.3,0,9,9,0,0,0-2.8,6.65,9,9,0,0,0,2.8,6.65,9.42,9.42,0,0,0,13.3,0A9.07,9.07,0,0,0,56.5,22.2"/><path class="cls-5" d="M56.5,22.2a9.39,9.39,0,0,1-9.4,9.4,9.07,9.07,0,0,1-6.65-2.75,9,9,0,0,1-2.8-6.65,9,9,0,0,1,2.8-6.65,9.3,9.3,0,0,1,13.3,0A9.07,9.07,0,0,1,56.5,22.2"/><path class="cls-6" d="M49.4,70.35a3.68,3.68,0,0,1,2.4,1.8,3.77,3.77,0,0,1,.4,3,3.88,3.88,0,0,1-1.8,2.4,4.06,4.06,0,0,1-3,.4A4,4,0,0,1,45,76.1a3.86,3.86,0,0,1,1.5-5.35,3.54,3.54,0,0,1,2.95-.4m-10.25,5.5,1.6-.2a1.81,1.81,0,0,1,1.2.95,2,2,0,0,1-.75,2.8l-1.55.2a2,2,0,0,1-1.25-.95,2.11,2.11,0,0,1-.2-1.55,2.24,2.24,0,0,1,.95-1.25m-2.3-4A3,3,0,0,1,37.2,74a2.91,2.91,0,0,1-1.4,1.75,2.9,2.9,0,0,1-3.95-1,2.7,2.7,0,0,1-.25-2.2,2.57,2.57,0,0,1,1.3-1.75,2.94,2.94,0,0,1,2.25-.3,2.74,2.74,0,0,1,1.7,1.35"/></g></g></svg>