<svg id="Layer_1" data-name="Layer 1" xmlns="http://www.w3.org/2000/svg" viewBox="0 0 370.19 370.19"><defs><style>.cls-1{fill:#fff;}</style></defs><title>bi</title><path class="cls-1" d="M370.1,185.1q0,90.5.09,181c0,3.43-.67,4.1-4.09,4.1q-181-.17-362,0c-3.43,0-4.1-.67-4.1-4.09q.17-181,0-362C0,.67.67,0,4.09,0q181,.17,362,0c3.43,0,4.11.67,4.1,4.09Q370,94.6,370.1,185.1ZM52.84,209.55c4.26,5,8.32,8.08,10,12.13,2.7,6.58,17,15.7,23.21,12.81,15.35-7.08,32-5.81,48.06-8.39,10.58-1.69,21.15-3.64,31.81-4.65,2.57-.24,7.62,2.53,7.82,4.33,1.1,9.85,1,19.82,1.37,29.76.65,17.41.72,34.87,2.28,52.2.69,7.64.75,16.21,7.21,22.4,2.21,2.12,3.32,3.47,6.6.65,7.73-6.62,11.3-15.58,13.64-24.61,2.4-9.27,2.32-19.18,3.31-28.81,1.85-17.85-.23-36,4.78-53.66,1.18-4.13,5-7.5,9.43-6a9.91,9.91,0,0,0,3.58.88c9.51-.44,19-1,28.53-1.54,10.1-.52,20.12-2.07,30.25.82a39.15,39.15,0,0,0,16.16,1.23c5-.76,9.89-3.46,14.29-6.19.76-.47-.55-5.75-2-8.09-5-7.89-22.05-14.65-30.86-11.14-15.92,6.35-32.38,6.27-49,6.44-3.39,0-6.76,1.19-10.17,1.37a59.28,59.28,0,0,1-10.65-.46c-.9-.12-2.19-1.83-2.29-2.9-.84-8.84-.88-17.79-2.26-26.52-1.48-9.35-17.28-21.82-26.76-21.35-3.13.15-8.51,2.36-8.8,4.25-1.25,8.06-1.27,16.35-1.16,24.55.07,5.21,1.89,10.45,1.5,15.57-.24,3.24-2.85,8.82-4.8,9-12.36,1.15-24.83,1.12-37.27,1.41-16.09.37-32.21.37-48.29,1.13C73,206.66,63.76,208.27,52.84,209.55Zm19.84-35c.7,1.65,1,3.5,2,4.55a168.52,168.52,0,0,0,13,11.84,7.53,7.53,0,0,0,5.9,1.25c13.74-3.93,22.49-14.33,31.46-24.54,6.62-7.52,13.81-14.53,20.71-21.79,4.38-4.61,8.75-9.22,13-14,.5-.55.14-1.88.17-2.84-4.11,0-8.32-.4-12.31.32-2.55.46-4.71,2.85-7.23,3.94-1.1.47-2.69-.08-4-.36-.19,0-.27-1.14-.22-1.73.47-7.06.19-14.29,1.78-21.09.95-4-4.16-10.92,5-12.24a169.53,169.53,0,0,0,26.94-6c4.16-1.32,7.59-5.11,11-8.16.24-.22-2.25-5.19-3.69-5.31-7.77-.67-16.12-2.27-23.3-.19-10,2.88-15.62.62-15.8-9.56a25.37,25.37,0,0,0-.7-4.81c-2.53-12.18-14.09-13.7-22.65-17.26s-11.78.28-10.59,9.44,3.33,18.43,3.82,27.7c.88,16.57,1.71,33.23.82,49.76-.53,9.72-3.78,19.07-14.74,24-7,3.12-12.59,9.18-18.72,14C73.51,172.11,73.26,173.39,72.68,174.53Zm207.91-56.79c-1.26,3.25-2,5-2.63,6.8-2.18,5.85-4.88,11.74-12.18,11.43-10.21-.43-20.41-1.54-30.54-2.89-6.8-.91-9.8-5.86-10.1-12.35-.24-5.49-.72-11.12.24-16.45.48-2.67,3.64-6.48,6.09-6.91,15.69-2.72,31.16-4.86,44.44-15.35,9.53-7.52,11-10.44,2.71-21.86a29.8,29.8,0,0,0-3.16-3.2c-6.91-6.9-8.8-6.29-14.5.49-8.65,10.31-18.22,19.85-27.49,29.63a3.67,3.67,0,0,1-3.08.83c-.63-.18-1.35-1.78-1.22-2.62.87-5.5,2.31-10.92,2.88-16.44.48-4.61,1.33-9.82-.26-13.86-3.75-9.48-12.72-13.53-21.67-16.72-5.49-2-11.08,4.19-10.18,9.87,1.1,7,1.41,14,2.17,21,2,18.74,3,37.7,6.63,56.11,1.75,8.81,7,18.6,13.67,24.4,16.4,14.18,54,13.27,73.71-1.13,6.48-4.74,7.69-9.13,3.17-12.62-2.14-1.64-5-2.34-7.26-3.83A39.26,39.26,0,0,1,284.2,126C282.68,124.27,282.22,121.62,280.59,117.74Z"/><path d="M52.84,209.55c10.92-1.28,20.18-2.89,29.5-3.33,16.08-.76,32.2-.76,48.29-1.13,12.44-.29,24.91-.26,37.27-1.41,1.95-.18,4.56-5.76,4.8-9,.39-5.12-1.43-10.36-1.5-15.57-.11-8.2-.09-16.49,1.16-24.55.29-1.89,5.67-4.1,8.8-4.25,9.48-.47,25.28,12,26.76,21.35,1.38,8.73,1.42,17.68,2.26,26.52.1,1.07,1.39,2.78,2.29,2.9a59.28,59.28,0,0,0,10.65.46c3.41-.18,6.78-1.34,10.17-1.37,16.59-.17,33-.09,49-6.44,8.81-3.51,25.83,3.25,30.86,11.14,1.49,2.34,2.8,7.62,2,8.09-4.4,2.73-9.28,5.43-14.29,6.19a39.15,39.15,0,0,1-16.16-1.23c-10.13-2.89-20.15-1.34-30.25-.82-9.51.49-19,1.1-28.53,1.54a9.91,9.91,0,0,1-3.58-.88c-4.42-1.55-8.25,1.82-9.43,6-5,17.64-2.93,35.81-4.78,53.66-1,9.63-.91,19.54-3.31,28.81-2.34,9-5.91,18-13.64,24.61-3.28,2.82-4.39,1.47-6.6-.65-6.46-6.19-6.52-14.76-7.21-22.4-1.56-17.33-1.63-34.79-2.28-52.2-.36-9.94-.27-19.91-1.37-29.76-.2-1.8-5.25-4.57-7.82-4.33-10.66,1-21.23,3-31.81,4.65-16,2.58-32.71,1.31-48.06,8.39-6.25,2.89-20.51-6.23-23.21-12.81C61.16,217.63,57.1,214.56,52.84,209.55Z"/><path d="M72.68,174.53c.58-1.14.83-2.42,1.62-3,6.13-4.86,11.77-10.92,18.72-14,11-4.92,14.21-14.27,14.74-24,.89-16.53.06-33.19-.82-49.76-.49-9.27-2.62-18.45-3.82-27.7s2-13,10.59-9.44,20.12,5.08,22.65,17.26a25.37,25.37,0,0,1,.7,4.81c.18,10.18,5.83,12.44,15.8,9.56,7.18-2.08,15.53-.48,23.3.19,1.44.12,3.93,5.09,3.69,5.31-3.42,3-6.85,6.84-11,8.16a169.53,169.53,0,0,1-26.94,6c-9.2,1.32-4.09,8.2-5,12.24-1.59,6.8-1.31,14-1.78,21.09-.05.59,0,1.69.22,1.73,1.33.28,2.92.83,4,.36,2.52-1.09,4.68-3.48,7.23-3.94,4-.72,8.2-.27,12.31-.32,0,1,.33,2.29-.17,2.84-4.23,4.73-8.6,9.34-13,14-6.9,7.26-14.09,14.27-20.71,21.79-9,10.21-17.72,20.61-31.46,24.54a7.53,7.53,0,0,1-5.9-1.25,168.52,168.52,0,0,1-13-11.84C73.64,178,73.38,176.18,72.68,174.53Z"/><path d="M280.59,117.74c1.63,3.88,2.09,6.53,3.61,8.22A39.26,39.26,0,0,0,292,132.1c2.28,1.49,5.12,2.19,7.26,3.83,4.52,3.49,3.31,7.88-3.17,12.62-19.7,14.4-57.31,15.31-73.71,1.13-6.71-5.8-11.92-15.59-13.67-24.4-3.67-18.41-4.61-37.37-6.63-56.11-.76-7-1.07-14.08-2.17-21-.9-5.68,4.69-11.83,10.18-9.87C219.07,41.46,228,45.51,231.79,55c1.59,4,.74,9.25.26,13.86-.57,5.52-2,10.94-2.88,16.44-.13.84.59,2.44,1.22,2.62a3.67,3.67,0,0,0,3.08-.83c9.27-9.78,18.84-19.32,27.49-29.63,5.7-6.78,7.59-7.39,14.5-.49a29.8,29.8,0,0,1,3.16,3.2c8.3,11.42,6.82,14.34-2.71,21.86-13.28,10.49-28.75,12.63-44.44,15.35-2.45.43-5.61,4.24-6.09,6.91-1,5.33-.48,11-.24,16.45.3,6.49,3.3,11.44,10.1,12.35,10.13,1.35,20.33,2.46,30.54,2.89,7.3.31,10-5.58,12.18-11.43C278.63,122.76,279.33,121,280.59,117.74Z"/></svg>