<svg id="Layer_1" data-name="Layer 1" xmlns="http://www.w3.org/2000/svg" viewBox="0 0 371 371"><defs><style>.cls-1{fill:#fff;}</style></defs><title>ye</title><path class="cls-1" d="M371,371H1V1H371ZM143.36,188.84l1.64.85c0,13.85.76,27.75-.2,41.53-1.11,16-2.09,31.62,4.9,46.69.46,1-1.86,4.74-3.13,4.87-12.94,1.35-25.91,2.49-38.89,3.16-18,.92-36,.78-53.87,2.36-7.32.64-14.61,4-21.43,7.21-4.7,2.2-5,9-.9,12.32,5.72,4.58,11.53,9.31,18,12.66,5.32,2.76,10.59,5.52,18,3.18,13.75-4.37,28.1-7.14,42.36-9.53,16-2.68,32.12-4.67,48.26-6.11,26.25-2.35,52.53-4.78,78.85-5.68,16.26-.55,32.61,2,48.94,2.54,16,.5,31.05,3.28,45.25,11.15,2.58,1.43,10.19-.45,10.95-2.49,3.53-9.48,2.4-18.1-6.87-25.14-14.54-11.06-29.17-19-47.81-10.46-3.21,1.46-6.79,2.83-10.23,2.92-13.4.33-26.82.05-40.23.17-5.8.06-7.92-3.27-5.43-7.64,5.69-10,4-20.75,4.63-31.36.56-9.42,2.74-18.72,10.55-25,5.91-4.78,13.09-8.06,18.69-13.13q18.24-16.53,35.36-34.27c8.9-9.22,13.29-20.54,8.06-33-3.57-8.54-8.91-16.67-18.59-19.61-3.28-1-8.08-1.2-10.6.53-3.29,2.27-5,6.62-1.69,11.19a7.91,7.91,0,0,1,.82,6.51c-4,9.57-8,19.22-12.91,28.31-5,9.24-11.1,17.92-16.93,26.7-1.4,2.11-3.7,3.62-5.88,5.69,0-14.37-.25-27.58.1-40.78.18-7.18,1.49-14.33,2.08-21.51,1.34-16.56,3.34-33.13,3.55-49.71.18-13.25-17-32.6-29.85-36.59-4.09-1.27-12.63,3-12.8,7.59-.19,4.92,1,9.89.85,14.82-.48,17.71-1.35,35.4-1.9,53.11-.76,23.87-1.25,47.74-2.09,71.61-.28,8.05-1.6,16.06-1.81,24.11-.23,8.86.29,17.74.46,26.61.08,4.51.25,9,.12,13.54-.13,4.29-.91,8.57-.8,12.84.1,4,.37,7.36-5.06,7.61-10.13.48-20.25,1.18-30.29,1.78.49-6.28,1.19-12.24,1.4-18.22,1.08-30.68,1.7-61.39,3.15-92.06,1.1-23,3.29-46,4.78-69a10.31,10.31,0,0,0-2.08-6.14c-4.41-6.06-10.65-11.29-13.31-18-2.21-5.55-5.5-4.8-8.6-4.2-2.54.49-6.52,3.24-6.61,5.15-.65,13.61-.66,27.27-.49,40.9.22,17.93,1.08,35.85.92,53.77,0,3.14-3.13,6.86-5.8,9.2-3,2.69-7.32,4-10.85,6.17-10.75,6.76-19.77,6.94-25.78.33-3.9-4.28-7.54-8.87-11.89-12.63-2.8-2.43-6.68-3.61-9.4-5,0,9.09.3,17-.06,24.84-.67,14.68-.25,29.29,5.39,43,1.76,4.27,5.86,9.5,9.83,10.49,5.94,1.48,12.6-.11,15.92-7.43A279.24,279.24,0,0,1,125.72,215C131.05,205.92,137.43,197.52,143.36,188.84Z"/><path d="M143.36,188.84c-5.93,8.68-12.31,17.08-17.64,26.11a279.24,279.24,0,0,0-13.64,27.11c-3.32,7.32-10,8.91-15.92,7.43-4-1-8.07-6.22-9.83-10.49-5.64-13.71-6.06-28.32-5.39-43,.36-7.86.06-15.75.06-24.84,2.72,1.39,6.6,2.57,9.4,5,4.35,3.76,8,8.35,11.89,12.63,6,6.61,15,6.43,25.78-.33,3.53-2.21,7.8-3.48,10.85-6.17,2.67-2.34,5.78-6.06,5.8-9.2.16-17.92-.7-35.84-.92-53.77-.17-13.63-.16-27.29.49-40.9.09-1.91,4.07-4.66,6.61-5.15,3.1-.6,6.39-1.35,8.6,4.2,2.66,6.69,8.9,11.92,13.31,18a10.31,10.31,0,0,1,2.08,6.14c-1.49,23-3.68,46-4.78,69C168.66,201.29,168,232,167,262.68c-.21,6-.91,11.94-1.4,18.22,10-.6,20.16-1.3,30.29-1.78,5.43-.25,5.16-3.62,5.06-7.61-.11-4.27.67-8.55.8-12.84.13-4.51,0-9-.12-13.54-.17-8.87-.69-17.75-.46-26.61.21-8.05,1.53-16.06,1.81-24.11.84-23.87,1.33-47.74,2.09-71.61.55-17.71,1.42-35.4,1.9-53.11.13-4.93-1-9.9-.85-14.82.17-4.62,8.71-8.86,12.8-7.59,12.87,4,30,23.34,29.85,36.59-.21,16.58-2.21,33.15-3.55,49.71-.59,7.18-1.9,14.33-2.08,21.51-.35,13.2-.1,26.41-.1,40.78,2.18-2.07,4.48-3.58,5.88-5.69,5.83-8.78,11.9-17.46,16.93-26.7,4.95-9.09,8.92-18.74,12.91-28.31a7.91,7.91,0,0,0-.82-6.51c-3.28-4.57-1.6-8.92,1.69-11.19,2.52-1.73,7.32-1.53,10.6-.53,9.68,2.94,15,11.07,18.59,19.61,5.23,12.51.84,23.83-8.06,33q-17.1,17.7-35.36,34.27c-5.6,5.07-12.78,8.35-18.69,13.13-7.81,6.32-10,15.62-10.55,25-.63,10.61,1.06,21.32-4.63,31.36-2.49,4.37-.37,7.7,5.43,7.64,13.41-.12,26.83.16,40.23-.17,3.44-.09,7-1.46,10.23-2.92,18.64-8.49,33.27-.6,47.81,10.46,9.27,7,10.4,15.66,6.87,25.14-.76,2-8.37,3.92-10.95,2.49-14.2-7.87-29.29-10.65-45.25-11.15-16.33-.51-32.68-3.09-48.94-2.54-26.32.9-52.6,3.33-78.85,5.68-16.14,1.44-32.27,3.43-48.26,6.11-14.26,2.39-28.61,5.16-42.36,9.53-7.39,2.34-12.66-.42-18-3.18-6.46-3.35-12.27-8.08-18-12.66-4.1-3.29-3.8-10.12.9-12.32,6.82-3.18,14.11-6.57,21.43-7.21,17.89-1.58,35.91-1.44,53.87-2.36,13-.67,25.95-1.81,38.89-3.16,1.27-.13,3.59-3.87,3.13-4.87-7-15.07-6-30.72-4.9-46.69,1-13.78.2-27.68.2-41.53Z"/></svg>